<?xml version="1.0" encoding="UTF-8" standalone="no"?>
<!-- Created with Inkscape (http://www.inkscape.org/) -->

<svg
   xmlns:dc="http://purl.org/dc/elements/1.1/"
   xmlns:cc="http://creativecommons.org/ns#"
   xmlns:rdf="http://www.w3.org/1999/02/22-rdf-syntax-ns#"
   xmlns:svg="http://www.w3.org/2000/svg"
   xmlns="http://www.w3.org/2000/svg"
   xmlns:sodipodi="http://sodipodi.sourceforge.net/DTD/sodipodi-0.dtd"
   xmlns:inkscape="http://www.inkscape.org/namespaces/inkscape"
   version="1.0"
   width="667.2796"
   height="544.58466"
   viewBox="-9.302 -9.782 667.2796 544.58466"
   id="Layer_1"
   xml:space="preserve"
   inkscape:version="0.91 r13725"
   sodipodi:docname="MiniDIN-6_Connector_Pinout.svg"><metadata
     id="metadata34"><rdf:RDF><cc:Work
         rdf:about=""><dc:format>image/svg+xml</dc:format><dc:type
           rdf:resource="http://purl.org/dc/dcmitype/StillImage" /><dc:title></dc:title></cc:Work></rdf:RDF></metadata><sodipodi:namedview
     pagecolor="#ffffff"
     bordercolor="#666666"
     borderopacity="1"
     objecttolerance="10"
     gridtolerance="10"
     guidetolerance="10"
     inkscape:pageopacity="0"
     inkscape:pageshadow="2"
     inkscape:window-width="1215"
     inkscape:window-height="1000"
     id="namedview32"
     showgrid="false"
     inkscape:zoom="0.73352616"
     inkscape:cx="310.05574"
     inkscape:cy="229.16931"
     inkscape:window-x="88"
     inkscape:window-y="24"
     inkscape:window-maximized="1"
     inkscape:current-layer="layer1"
     fit-margin-top="0"
     fit-margin-left="0"
     fit-margin-right="0"
     fit-margin-bottom="0" /><defs
     id="defs60" /><g
     inkscape:groupmode="layer"
     id="layer1"
     inkscape:label="back"
     style="display:inline"
     transform="translate(-42.624892,-28.314991)"><rect
       style="opacity:1;fill:#ffffff;fill-opacity:1;stroke:#ffffff;stroke-width:1.86334169;stroke-linecap:round;stroke-linejoin:round;stroke-miterlimit:4;stroke-dasharray:none;stroke-dashoffset:0;stroke-opacity:1"
       id="rect4371"
       width="665.41626"
       height="542.72131"
       x="34.254562"
       y="19.464663"
       inkscape:export-xdpi="90"
       inkscape:export-ydpi="90" /></g><g
     inkscape:groupmode="layer"
     id="layer2"
     inkscape:label="drawing"
     style="display:inline"
     transform="translate(-42.624892,-28.314991)"><path
       d="m 172.49188,277.88974 c -0.003,109.693 88.921,198.616 198.614,198.615 109.691,0 198.62,-88.921 198.62,-198.615 -0.003,-109.693 -88.93,-198.625002 -198.621,-198.625002 -109.693,0.001 -198.614,88.932002 -198.613,198.625002 z"
       style="fill:#cccccc;stroke:#000000;stroke-width:6.91480017"
       id="path3"
       inkscape:connector-curvature="0"
       inkscape:export-xdpi="90"
       inkscape:export-ydpi="90" /><path
       d="m 496.93288,151.57974 c -25.809,-25.806 -57.548,-42.055 -90.826,-48.769 l 0,31.574 -1,0 -68.999,0 -1.001,0 0,-31.571 c -33.28,6.717 -65.017,22.968 -90.82,48.774 -59.029,59.028 -68.093,149.079 -27.23,217.656 l 62.185,0 0,62.205 c 56.116,33.445 126.608,33.446 182.725,0.002 l 0,-62.203 62.188,0 c 40.868,-68.582 31.809,-158.639 -27.222,-217.668 z"
       style="fill:#ffffff;stroke:#000000;stroke-width:6.91480017"
       id="path5"
       inkscape:connector-curvature="0"
       inkscape:export-xdpi="90"
       inkscape:export-ydpi="90" /><rect
       width="62.341999"
       height="110.828"
       x="339.37689"
       y="182.86176"
       style="fill:#4d4d4d;stroke:#000000;stroke-width:6.91480017"
       id="rect7"
       inkscape:export-xdpi="90"
       inkscape:export-ydpi="90" /><g
       id="g9"
       style="fill:#d4aa00"
       transform="translate(152.91088,60.166738)"
       inkscape:export-xdpi="90"
       inkscape:export-ydpi="90"><circle
         cx="126.093"
         cy="141.746"
         r="19.554001"
         style="fill:#d4aa00;stroke:#000000;stroke-width:6.91480017"
         id="circle11" /><circle
         cx="102.949"
         cy="233.33099"
         r="19.554001"
         style="fill:#d4aa00;stroke:#000000;stroke-width:6.91480017"
         id="circle13" /><circle
         cx="332.33099"
         cy="233.33099"
         r="19.554001"
         style="fill:#d4aa00;stroke:#000000;stroke-width:6.91480017"
         id="circle15" /><circle
         cx="170.961"
         cy="324.452"
         r="19.554001"
         style="fill:#d4aa00;stroke:#000000;stroke-width:6.91480017"
         id="circle17" /><circle
         cx="309.18301"
         cy="141.745"
         r="19.554001"
         style="fill:#d4aa00;stroke:#000000;stroke-width:6.91480017"
         id="circle19" /><circle
         cx="264.315"
         cy="324.45099"
         r="19.554001"
         style="fill:#d4aa00;stroke:#000000;stroke-width:6.91480017"
         id="circle21" /></g><rect
       id="rect25"
       style="fill:none"
       y="162.38475"
       x="401.21906"
       height="42"
       width="42"
       inkscape:export-xdpi="90"
       inkscape:export-ydpi="90" /><path
       inkscape:connector-curvature="0"
       id="path27"
       d="m 429.87505,168.19174 c -0.864,-0.048 -1.968,0.048 -3.168,0.24 -6.672,1.056 -10.128,5.904 -10.848,11.088 l 0.096,0 c 1.488,-2.016 4.128,-3.648 7.584,-3.648 5.52,0 9.408,4.032 9.408,10.08 0,5.76 -3.888,11.04 -10.416,11.04 -6.624,0 -10.992,-5.184 -10.992,-13.296 0,-6.144 2.16,-10.992 5.28,-14.112 2.592,-2.544 6.048,-4.128 9.984,-4.608 1.248,-0.192 2.304,-0.24 3.072,-0.24 l 0,3.456 0,0 z m -7.248,25.536 c 3.6,0 6.048,-3.024 6.048,-7.488 0,-4.464 -2.544,-7.152 -6.432,-7.152 -2.544,0 -4.944,1.536 -6.096,3.84 -0.24,0.48 -0.432,1.056 -0.432,1.824 0.048,5.136 2.448,8.976 6.864,8.976 l 0.048,0 z"
       style="fill:#0000ff"
       inkscape:export-xdpi="90"
       inkscape:export-ydpi="90" /><rect
       id="rect31"
       style="fill:none"
       y="162.38475"
       x="296.06973"
       height="42"
       width="42"
       inkscape:export-xdpi="90"
       inkscape:export-ydpi="90" /><path
       inkscape:connector-curvature="0"
       id="path33"
       d="m 325.54174,168.81574 -11.903,0 -1.2,7.92 c 0.72,-0.096 1.392,-0.192 2.544,-0.192 2.448,0 4.8,0.528 6.72,1.68 2.448,1.344 4.464,4.08 4.464,8.112 0,6.096 -4.848,10.656 -11.615,10.656 -3.408,0 -6.24,-0.96 -7.776,-1.92 l 1.056,-3.216 c 1.296,0.768 3.84,1.728 6.721,1.728 3.936,0 7.392,-2.592 7.344,-6.816 0,-4.128 -2.736,-6.96 -8.928,-6.96 -1.824,0 -3.217,0.144 -4.368,0.336 l 2.016,-14.88 14.928,0 0,3.552 -0.003,0 z"
       style="fill:#0000ff"
       inkscape:export-xdpi="90"
       inkscape:export-ydpi="90" /><rect
       id="rect37"
       style="fill:none"
       y="320.3847"
       x="415.85889"
       height="42"
       width="42"
       inkscape:export-xdpi="90"
       inkscape:export-ydpi="90" /><path
       inkscape:connector-curvature="0"
       id="path39"
       d="m 426.70688,354.46374 0,-2.592 3.312,-3.216 c 7.968,-7.585 11.616,-11.616 11.616,-16.32 0,-3.168 -1.488,-6.097 -6.144,-6.097 -2.832,0 -5.184,1.44 -6.624,2.641 l -1.344,-2.977 c 2.112,-1.775 5.232,-3.168 8.832,-3.168 6.672,0 9.504,4.608 9.504,9.072 0,5.76 -4.176,10.416 -10.752,16.752 l -2.448,2.305 0,0.096 13.968,0 0,3.504 -19.92,0 0,0 z"
       style="fill:#0000ff"
       inkscape:export-xdpi="90"
       inkscape:export-ydpi="90" /><rect
       id="rect43"
       style="fill:none"
       y="320.3847"
       x="280.46594"
       height="42"
       width="42"
       inkscape:export-xdpi="90"
       inkscape:export-ydpi="90" /><path
       inkscape:connector-curvature="0"
       id="path45"
       d="m 300.48193,327.19874 -0.096,0 -5.424,2.929 -0.816,-3.216 6.816,-3.648 3.6,0 0,31.2 -4.08,0 0,-27.265 0,0 z"
       style="fill:#0000ff"
       inkscape:export-xdpi="90"
       inkscape:export-ydpi="90" /><rect
       id="rect49"
       style="fill:none"
       y="253.38475"
       x="421.70633"
       height="42"
       width="42"
       inkscape:export-xdpi="90"
       inkscape:export-ydpi="90" /><path
       inkscape:connector-curvature="0"
       id="path51"
       d="m 445.61033,287.46374 0,-8.496 -14.496,0 0,-2.736 13.92,-19.968 4.56,0 0,19.44 4.368,0 0,3.264 -4.368,0 0,8.496 -3.984,0 0,0 z m 0,-11.76 0,-10.464 c 0,-1.632 0.048,-3.264 0.144,-4.896 l -0.144,0 c -0.96,1.824 -1.728,3.168 -2.592,4.656 l -7.632,10.608 0,0.096 10.224,0 0,0 z"
       style="fill:#0000ff"
       inkscape:export-xdpi="90"
       inkscape:export-ydpi="90" /><rect
       id="rect55"
       style="fill:none"
       y="253.38475"
       x="279.43839"
       height="42"
       width="42"
       inkscape:export-xdpi="90"
       inkscape:export-ydpi="90" /><path
       inkscape:connector-curvature="0"
       id="path57"
       d="m 291.29439,282.66374 c 1.199,0.72 3.936,1.92 6.911,1.92 5.377,0 7.104,-3.408 7.057,-6.048 -0.048,-4.368 -3.984,-6.24 -8.064,-6.24 l -2.352,0 0,-3.168 2.352,0 c 3.072,0 6.96,-1.584 6.96,-5.28 0,-2.496 -1.584,-4.704 -5.472,-4.704 -2.496,0 -4.896,1.104 -6.24,2.064 l -1.151,-3.072 c 1.68,-1.2 4.848,-2.4 8.208,-2.4 6.144,0 8.928,3.648 8.928,7.44 0,3.264 -1.968,6 -5.76,7.392 l 0,0.096 c 3.84,0.72 6.96,3.6 6.96,7.968 0,4.992 -3.937,9.36 -11.376,9.36 -3.504,0 -6.576,-1.104 -8.112,-2.112 l 1.151,-3.216 z"
       style="fill:#0000ff"
       inkscape:export-xdpi="90"
       inkscape:export-ydpi="90" /><text
       xml:space="preserve"
       style="font-style:normal;font-weight:normal;font-size:32.18091202px;line-height:125%;font-family:sans-serif;letter-spacing:0px;word-spacing:0px;fill:#000000;fill-opacity:1;stroke:none;stroke-width:1px;stroke-linecap:butt;stroke-linejoin:miter;stroke-opacity:1"
       x="242.52151"
       y="71.35994"
       id="text4174"
       sodipodi:linespacing="125%"
       inkscape:export-xdpi="90"
       inkscape:export-ydpi="90"><tspan
         sodipodi:role="line"
         id="tspan4176"
         x="242.52151"
         y="71.35994"
         style="font-style:normal;font-variant:normal;font-weight:bold;font-stretch:normal;font-family:sans-serif;-inkscape-font-specification:'sans-serif Bold'">CLK</tspan></text>
<path
       style="opacity:1;fill:#000000;fill-opacity:1;stroke:#000000;stroke-width:1.65913761;stroke-linecap:round;stroke-linejoin:round;stroke-miterlimit:4;stroke-dasharray:none;stroke-dashoffset:0;stroke-opacity:1"
       d="m 278.57339,201.69003 0,-121.964255"
       id="path4178"
       inkscape:connector-curvature="0"
       inkscape:export-xdpi="90"
       inkscape:export-ydpi="90" /><path
       style="opacity:1;fill:#000000;fill-opacity:1;stroke:#000000;stroke-width:1.51992977;stroke-linecap:round;stroke-linejoin:round;stroke-miterlimit:4;stroke-dasharray:none;stroke-dashoffset:0;stroke-opacity:1"
       d="m 255.85938,293.30847 -106.89507,0"
       id="path4180"
       inkscape:connector-curvature="0"
       inkscape:export-xdpi="90"
       inkscape:export-ydpi="90" /><text
       xml:space="preserve"
       style="font-style:normal;font-weight:normal;font-size:32.18091202px;line-height:125%;font-family:sans-serif;letter-spacing:0px;word-spacing:0px;fill:#000000;fill-opacity:1;stroke:none;stroke-width:1px;stroke-linecap:butt;stroke-linejoin:miter;stroke-opacity:1"
       x="275.5773"
       y="537.57861"
       id="text4174-3"
       sodipodi:linespacing="125%"
       inkscape:export-xdpi="90"
       inkscape:export-ydpi="90"><tspan
         sodipodi:role="line"
         id="tspan4176-6"
         x="275.5773"
         y="537.57861"
         style="font-style:normal;font-variant:normal;font-weight:bold;font-stretch:normal;font-family:sans-serif;-inkscape-font-specification:'sans-serif Bold'">DATA</tspan></text>
<path
       style="opacity:1;fill:#000000;fill-opacity:1;stroke:#000000;stroke-width:1.69424951;stroke-linecap:round;stroke-linejoin:round;stroke-miterlimit:4;stroke-dasharray:none;stroke-dashoffset:0;stroke-opacity:1"
       d="m 323.56156,382.40333 0,123.26781"
       id="path4200"
       inkscape:connector-curvature="0"
       inkscape:export-xdpi="90"
       inkscape:export-ydpi="90" /><text
       xml:space="preserve"
       style="font-style:normal;font-weight:normal;font-size:32.18091202px;line-height:125%;font-family:sans-serif;letter-spacing:0px;word-spacing:0px;fill:#000000;fill-opacity:1;stroke:none;stroke-width:1px;stroke-linecap:butt;stroke-linejoin:miter;stroke-opacity:1"
       x="63.321934"
       y="305.79095"
       id="text4174-3-7"
       sodipodi:linespacing="125%"
       inkscape:export-xdpi="90"
       inkscape:export-ydpi="90"><tspan
         sodipodi:role="line"
         id="tspan4176-6-5"
         x="63.321934"
         y="305.79095"
         style="font-style:normal;font-variant:normal;font-weight:bold;font-stretch:normal;font-family:sans-serif;-inkscape-font-specification:'sans-serif Bold'">GND</tspan></text>
<path
       style="opacity:1;fill:#000000;fill-opacity:1;stroke:#000000;stroke-width:1.5293225;stroke-linecap:round;stroke-linejoin:round;stroke-miterlimit:4;stroke-dasharray:none;stroke-dashoffset:0;stroke-opacity:1"
       d="m 592.58176,293.30847 -108.22032,0"
       id="path4180-3"
       inkscape:connector-curvature="0"
       inkscape:export-xdpi="90"
       inkscape:export-ydpi="90" /><text
       xml:space="preserve"
       style="font-style:normal;font-weight:normal;font-size:32.18091202px;line-height:125%;font-family:sans-serif;letter-spacing:0px;word-spacing:0px;fill:#000000;fill-opacity:1;stroke:none;stroke-width:1px;stroke-linecap:butt;stroke-linejoin:miter;stroke-opacity:1"
       x="603.93359"
       y="305.79095"
       id="text4174-3-7-5"
       sodipodi:linespacing="125%"
       inkscape:export-xdpi="90"
       inkscape:export-ydpi="90"><tspan
         sodipodi:role="line"
         id="tspan4176-6-5-6"
         x="603.93359"
         y="305.79095"
         style="font-style:normal;font-variant:normal;font-weight:bold;font-stretch:normal;font-family:sans-serif;-inkscape-font-specification:'sans-serif Bold'">VCC</tspan></text>
</g></svg>